<svg width="178" height="73" viewBox="0 0 178 73" fill="none" xmlns="http://www.w3.org/2000/svg">
<path d="M24.7529 16.0306H32.4348V45.7899H24.7529V40.3565C22.5862 43.8594 19.1063 46.0001 14.379 46.0001C6.30313 46.0001 0 39.578 0 30.691C0 21.8039 6.30313 15.3819 14.379 15.3819C19.1063 15.3819 22.5862 17.3928 24.7529 20.8309V16.0306ZM16.2174 37.8266C20.4195 37.8266 23.5054 34.8426 23.5054 30.691C23.5054 26.5394 20.4195 23.5554 16.2174 23.5554C12.0153 23.5554 8.92943 26.5394 8.92943 30.691C8.92943 34.8426 12.0153 37.8266 16.2174 37.8266Z" fill="black"/>
<path d="M57.1944 15.3819H58.2449V24.2041H56.2752C51.2852 24.2041 48.1993 27.0583 48.1993 32.7668V45.7899H39.2699V16.0306H46.1639V21.6093C48.068 17.5875 51.9418 15.3819 57.1944 15.3819Z" fill="black"/>
<path d="M67.4006 10.8411C64.446 10.8411 62.2136 8.63553 62.2136 5.84616C62.2136 3.05679 64.446 0.786377 67.4006 0.786377C70.3551 0.786377 72.6532 3.05679 72.6532 5.84616C72.6532 8.63553 70.3551 10.8411 67.4006 10.8411ZM71.9309 16.0306V45.7899H62.9359V16.0306H71.9309Z" fill="black"/>
<path d="M101.02 23.2311H91.6969V33.8696C91.6969 36.9833 93.3384 38.4104 96.3586 38.4104C99.1162 38.4104 101.02 37.7617 101.02 37.7617V44.8973C101.02 44.8973 98.7879 46.0001 93.7323 46.0001C86.8383 46.0001 82.7675 42.1728 82.7675 35.9454V23.2311H77.121V16.0306H82.7675V9.02474H91.6969V16.0306H101.02V23.2311Z" fill="black"/>
<path d="M136.751 30.691C136.751 31.4046 136.62 32.183 136.62 32.183H113.377C113.706 36.0751 116.66 38.6699 120.862 38.6699C124.014 38.6699 126.377 37.1779 127.559 34.9723H136.095C134.322 41.4592 128.413 46.0001 120.731 46.0001C111.473 46.0001 104.513 39.4483 104.513 30.691C104.513 21.9337 111.473 15.3819 120.731 15.3819C129.989 15.3819 136.751 21.9337 136.751 30.691ZM120.797 21.9337C117.448 21.9337 114.822 23.8149 113.771 26.6691H127.888C126.837 23.8149 124.211 21.9337 120.797 21.9337Z" fill="black"/>
<path d="M161.911 28.4407L174.001 45.7903H163.758L156.186 33.1682L150.24 39.2795V30.3108L162.502 16.5354H173.532L161.911 28.4407Z" fill="black"/>
<path d="M141.228 0H150.239V14.7168C150.239 19.6939 146.205 23.7287 141.228 23.7287V0Z" fill="#476DFA"/>
<path d="M150.24 45.79H141.228V31.2709C141.228 26.2938 145.263 22.2591 150.24 22.2591V45.79Z" fill="#EF7151"/>
<path d="M5.71875 63.5653C5.6733 63.1619 5.4858 62.8494 5.15625 62.6278C4.8267 62.4034 4.41193 62.2912 3.91193 62.2912C3.55398 62.2912 3.24432 62.348 2.98295 62.4616C2.72159 62.5724 2.51847 62.7259 2.37358 62.9219C2.23153 63.1151 2.16051 63.3352 2.16051 63.5824C2.16051 63.7898 2.20881 63.9687 2.3054 64.1193C2.40483 64.2699 2.53409 64.3963 2.69318 64.4986C2.85511 64.598 3.02841 64.6818 3.21307 64.75C3.39773 64.8153 3.57528 64.8693 3.74574 64.9119L4.59801 65.1335C4.87642 65.2017 5.16193 65.294 5.45455 65.4105C5.74716 65.527 6.01847 65.6804 6.26847 65.8707C6.51847 66.0611 6.72017 66.2969 6.87358 66.5781C7.02983 66.8594 7.10795 67.196 7.10795 67.5881C7.10795 68.0824 6.98011 68.5213 6.72443 68.9048C6.47159 69.2884 6.10369 69.5909 5.62074 69.8125C5.14063 70.0341 4.55966 70.1449 3.87784 70.1449C3.22443 70.1449 2.65909 70.0412 2.18182 69.8338C1.70455 69.6264 1.33097 69.3324 1.06108 68.9517C0.791193 68.5682 0.642045 68.1136 0.613636 67.5881H1.93466C1.96023 67.9034 2.0625 68.1662 2.24148 68.3764C2.4233 68.5838 2.65483 68.7386 2.93608 68.8409C3.22017 68.9403 3.53125 68.9901 3.86932 68.9901C4.24148 68.9901 4.57244 68.9318 4.86222 68.8153C5.15483 68.696 5.38494 68.5312 5.55256 68.321C5.72017 68.108 5.80398 67.8594 5.80398 67.5753C5.80398 67.3168 5.73011 67.1051 5.58239 66.9403C5.4375 66.7756 5.24006 66.6392 4.99006 66.5312C4.7429 66.4233 4.46307 66.3281 4.15057 66.2457L3.11932 65.9645C2.42045 65.7741 1.86648 65.4943 1.45739 65.125C1.05114 64.7557 0.848011 64.267 0.848011 63.6591C0.848011 63.1562 0.984375 62.7173 1.2571 62.3423C1.52983 61.9673 1.89915 61.6761 2.36506 61.4688C2.83097 61.2585 3.35653 61.1534 3.94176 61.1534C4.53267 61.1534 5.05398 61.2571 5.50568 61.4645C5.96023 61.6719 6.31818 61.9574 6.57955 62.321C6.84091 62.6818 6.97727 63.0966 6.98864 63.5653H5.71875ZM8.81919 70V63.4545H10.0933V70H8.81919ZM9.46266 62.4446C9.24107 62.4446 9.05072 62.3707 8.89163 62.223C8.73538 62.0724 8.65726 61.8935 8.65726 61.6861C8.65726 61.4759 8.73538 61.2969 8.89163 61.1491C9.05072 60.9986 9.24107 60.9233 9.46266 60.9233C9.68425 60.9233 9.87317 60.9986 10.0294 61.1491C10.1885 61.2969 10.2681 61.4759 10.2681 61.6861C10.2681 61.8935 10.1885 62.0724 10.0294 62.223C9.87317 62.3707 9.68425 62.4446 9.46266 62.4446ZM12.0475 70V63.4545H13.2705V64.5199H13.3514C13.4878 64.1591 13.7108 63.8778 14.0205 63.6761C14.3301 63.4716 14.7009 63.3693 15.1327 63.3693C15.5702 63.3693 15.9367 63.4716 16.2321 63.6761C16.5304 63.8807 16.7506 64.1619 16.8926 64.5199H16.9608C17.1171 64.1705 17.3657 63.892 17.7066 63.6847C18.0475 63.4744 18.4537 63.3693 18.9253 63.3693C19.5191 63.3693 20.0034 63.5554 20.3784 63.9276C20.7563 64.2997 20.9452 64.8608 20.9452 65.6108V70H19.6711V65.7301C19.6711 65.2869 19.5503 64.9659 19.3088 64.767C19.0674 64.5682 18.779 64.4688 18.4438 64.4688C18.029 64.4688 17.7066 64.5966 17.4764 64.8523C17.2463 65.1051 17.1313 65.4304 17.1313 65.8281V70H15.8614V65.6491C15.8614 65.294 15.7506 65.0085 15.529 64.7926C15.3074 64.5767 15.0191 64.4688 14.6639 64.4688C14.4225 64.4688 14.1995 64.5327 13.9949 64.6605C13.7932 64.7855 13.6299 64.9602 13.5049 65.1847C13.3827 65.4091 13.3216 65.669 13.3216 65.9645V70H12.0475ZM22.8929 72.4545V63.4545H24.1373V64.5156H24.2438C24.3177 64.3793 24.4242 64.2216 24.5634 64.0426C24.7026 63.8636 24.8958 63.7074 25.1429 63.5739C25.3901 63.4375 25.7168 63.3693 26.1231 63.3693C26.6515 63.3693 27.1231 63.5028 27.5378 63.7699C27.9526 64.0369 28.2779 64.4219 28.5137 64.9247C28.7523 65.4276 28.8716 66.0327 28.8716 66.7401C28.8716 67.4474 28.7537 68.054 28.5179 68.5597C28.2821 69.0625 27.9583 69.4503 27.5463 69.723C27.1344 69.9929 26.6642 70.1278 26.1358 70.1278C25.7381 70.1278 25.4128 70.0611 25.16 69.9276C24.91 69.794 24.714 69.6378 24.5719 69.4588C24.4299 69.2798 24.3205 69.1207 24.2438 68.9815H24.1671V72.4545H22.8929ZM24.1415 66.7273C24.1415 67.1875 24.2083 67.5909 24.3418 67.9375C24.4753 68.2841 24.6685 68.5554 24.9213 68.7514C25.1742 68.9446 25.4838 69.0412 25.8503 69.0412C26.231 69.0412 26.5492 68.9403 26.8049 68.7386C27.0606 68.5341 27.2537 68.2571 27.3844 67.9077C27.5179 67.5582 27.5847 67.1648 27.5847 66.7273C27.5847 66.2955 27.5194 65.9077 27.3887 65.5639C27.2608 65.2202 27.0677 64.9489 26.8091 64.75C26.5535 64.5511 26.2338 64.4517 25.8503 64.4517C25.481 64.4517 25.1685 64.5469 24.9128 64.7372C24.66 64.9276 24.4682 65.1932 24.3375 65.5341C24.2069 65.875 24.1415 66.2727 24.1415 66.7273ZM31.8133 61.2727V70H30.5392V61.2727H31.8133ZM33.7675 70V63.4545H35.0416V70H33.7675ZM34.4109 62.4446C34.1893 62.4446 33.999 62.3707 33.8399 62.223C33.6837 62.0724 33.6055 61.8935 33.6055 61.6861C33.6055 61.4759 33.6837 61.2969 33.8399 61.1491C33.999 60.9986 34.1893 60.9233 34.4109 60.9233C34.6325 60.9233 34.8214 60.9986 34.9777 61.1491C35.1368 61.2969 35.2163 61.4759 35.2163 61.6861C35.2163 61.8935 35.1368 62.0724 34.9777 62.223C34.8214 62.3707 34.6325 62.4446 34.4109 62.4446ZM40.1108 63.4545V64.4773H36.4119V63.4545H40.1108ZM37.4261 70V62.696C37.4261 62.2869 37.5156 61.9474 37.6946 61.6776C37.8736 61.4048 38.1108 61.2017 38.4063 61.0682C38.7017 60.9318 39.0227 60.8636 39.3693 60.8636C39.625 60.8636 39.8438 60.8849 40.0256 60.9276C40.2074 60.9673 40.3423 61.0043 40.4304 61.0384L40.1321 62.0696C40.0725 62.0526 39.9958 62.0327 39.902 62.0099C39.8083 61.9844 39.6946 61.9716 39.5611 61.9716C39.2514 61.9716 39.0298 62.0483 38.8963 62.2017C38.7656 62.3551 38.7003 62.5767 38.7003 62.8665V70H37.4261ZM41.6654 70V63.4545H42.9396V70H41.6654ZM42.3089 62.4446C42.0873 62.4446 41.897 62.3707 41.7379 62.223C41.5816 62.0724 41.5035 61.8935 41.5035 61.6861C41.5035 61.4759 41.5816 61.2969 41.7379 61.1491C41.897 60.9986 42.0873 60.9233 42.3089 60.9233C42.5305 60.9233 42.7194 60.9986 42.8757 61.1491C43.0348 61.2969 43.1143 61.4759 43.1143 61.6861C43.1143 61.8935 43.0348 62.0724 42.8757 62.223C42.7194 62.3707 42.5305 62.4446 42.3089 62.4446ZM47.7147 70.1321C47.0699 70.1321 46.5145 69.9943 46.0485 69.7188C45.5855 69.4403 45.2275 69.0497 44.9747 68.5469C44.7247 68.0412 44.5997 67.4489 44.5997 66.7699C44.5997 66.0994 44.7247 65.5085 44.9747 64.9972C45.2275 64.4858 45.5798 64.0866 46.0315 63.7997C46.486 63.5128 47.0173 63.3693 47.6253 63.3693C47.9946 63.3693 48.3525 63.4304 48.6991 63.5526C49.0457 63.6747 49.3568 63.8665 49.6324 64.1278C49.9079 64.3892 50.1253 64.7287 50.2843 65.1463C50.4434 65.5611 50.523 66.0653 50.523 66.6591V67.1108H45.3199V66.1562H49.2744C49.2744 65.821 49.2062 65.5241 49.0699 65.2656C48.9335 65.0043 48.7417 64.7983 48.4946 64.6477C48.2503 64.4972 47.9633 64.4219 47.6338 64.4219C47.2758 64.4219 46.9633 64.5099 46.6963 64.6861C46.4321 64.8594 46.2275 65.0866 46.0826 65.3679C45.9406 65.6463 45.8696 65.9489 45.8696 66.2756V67.0213C45.8696 67.4588 45.9463 67.831 46.0997 68.1378C46.2559 68.4446 46.4733 68.679 46.7517 68.8409C47.0301 69 47.3554 69.0795 47.7275 69.0795C47.969 69.0795 48.1892 69.0455 48.388 68.9773C48.5869 68.9062 48.7588 68.8011 48.9037 68.6619C49.0485 68.5227 49.1593 68.3509 49.236 68.1463L50.442 68.3636C50.3454 68.7187 50.1721 69.0298 49.9221 69.2969C49.675 69.5611 49.3639 69.767 48.9889 69.9148C48.6167 70.0597 48.192 70.1321 47.7147 70.1321ZM54.627 70.1278C54.0986 70.1278 53.627 69.9929 53.2122 69.723C52.8003 69.4503 52.4764 69.0625 52.2406 68.5597C52.0077 68.054 51.8912 67.4474 51.8912 66.7401C51.8912 66.0327 52.0091 65.4276 52.2449 64.9247C52.4835 64.4219 52.8102 64.0369 53.225 63.7699C53.6398 63.5028 54.1099 63.3693 54.6355 63.3693C55.0417 63.3693 55.3685 63.4375 55.6156 63.5739C55.8656 63.7074 56.0588 63.8636 56.1952 64.0426C56.3344 64.2216 56.4423 64.3793 56.519 64.5156H56.5957V61.2727H57.8699V70H56.6256V68.9815H56.519C56.4423 69.1207 56.3315 69.2798 56.1866 69.4588C56.0446 69.6378 55.8486 69.794 55.5986 69.9276C55.3486 70.0611 55.0247 70.1278 54.627 70.1278ZM54.9082 69.0412C55.2747 69.0412 55.5844 68.9446 55.8372 68.7514C56.0929 68.5554 56.2861 68.2841 56.4167 67.9375C56.5503 67.5909 56.617 67.1875 56.617 66.7273C56.617 66.2727 56.5517 65.875 56.421 65.5341C56.2903 65.1932 56.0986 64.9276 55.8457 64.7372C55.5929 64.5469 55.2804 64.4517 54.9082 64.4517C54.5247 64.4517 54.2051 64.5511 53.9494 64.75C53.6937 64.9489 53.5006 65.2202 53.3699 65.5639C53.242 65.9077 53.1781 66.2955 53.1781 66.7273C53.1781 67.1648 53.2435 67.5582 53.3741 67.9077C53.5048 68.2571 53.698 68.5341 53.9537 68.7386C54.2122 68.9403 54.5304 69.0412 54.9082 69.0412ZM63.4465 70V61.2727H68.8584V62.4062H64.7632V65.0653H68.4706V66.1946H64.7632V70H63.4465ZM70.6154 70V63.4545H71.8896V70H70.6154ZM71.2589 62.4446C71.0373 62.4446 70.847 62.3707 70.6879 62.223C70.5316 62.0724 70.4535 61.8935 70.4535 61.6861C70.4535 61.4759 70.5316 61.2969 70.6879 61.1491C70.847 60.9986 71.0373 60.9233 71.2589 60.9233C71.4805 60.9233 71.6694 60.9986 71.8257 61.1491C71.9848 61.2969 72.0643 61.4759 72.0643 61.6861C72.0643 61.8935 71.9848 62.0724 71.8257 62.223C71.6694 62.3707 71.4805 62.4446 71.2589 62.4446ZM75.1179 66.1136V70H73.8437V63.4545H75.0667V64.5199H75.1477C75.2983 64.1733 75.5341 63.8949 75.8551 63.6847C76.179 63.4744 76.5866 63.3693 77.0781 63.3693C77.5241 63.3693 77.9147 63.4631 78.25 63.6506C78.5852 63.8352 78.8451 64.1108 79.0298 64.4773C79.2145 64.8437 79.3068 65.2969 79.3068 65.8366V70H78.0326V65.9901C78.0326 65.5156 77.9091 65.1449 77.6619 64.8778C77.4147 64.608 77.0753 64.473 76.6434 64.473C76.348 64.473 76.0852 64.5369 75.8551 64.6648C75.6278 64.7926 75.4474 64.9801 75.3139 65.2273C75.1832 65.4716 75.1179 65.767 75.1179 66.1136ZM83.1604 70.1449C82.7457 70.1449 82.3707 70.0682 82.0354 69.9148C81.7002 69.7585 81.4346 69.5327 81.2386 69.2372C81.0454 68.9418 80.9488 68.5795 80.9488 68.1506C80.9488 67.7812 81.0198 67.4773 81.1618 67.2386C81.3039 67 81.4957 66.8111 81.7371 66.6719C81.9786 66.5327 82.2485 66.4276 82.5468 66.3565C82.8451 66.2855 83.1491 66.2315 83.4587 66.1946C83.8508 66.1491 84.1689 66.1122 84.4133 66.0838C84.6576 66.0526 84.8351 66.0028 84.9459 65.9347C85.0567 65.8665 85.1121 65.7557 85.1121 65.6023V65.5724C85.1121 65.2003 85.007 64.9119 84.7968 64.7074C84.5894 64.5028 84.2797 64.4006 83.8678 64.4006C83.4388 64.4006 83.1008 64.4957 82.8536 64.6861C82.6093 64.8736 82.4403 65.0824 82.3465 65.3125L81.1491 65.0398C81.2911 64.642 81.4985 64.321 81.7712 64.0767C82.0468 63.8295 82.3636 63.6506 82.7215 63.5398C83.0795 63.4261 83.4559 63.3693 83.8508 63.3693C84.1121 63.3693 84.3891 63.4006 84.6817 63.4631C84.9772 63.5227 85.2528 63.6335 85.5084 63.7955C85.767 63.9574 85.9786 64.1889 86.1434 64.4901C86.3082 64.7884 86.3905 65.1761 86.3905 65.6534V70H85.1462V69.1051H85.0951C85.0127 69.2699 84.8891 69.4318 84.7243 69.5909C84.5596 69.75 84.3479 69.8821 84.0894 69.9872C83.8309 70.0923 83.5212 70.1449 83.1604 70.1449ZM83.4374 69.1222C83.7897 69.1222 84.0908 69.0526 84.3408 68.9134C84.5937 68.7741 84.7854 68.5923 84.9161 68.3679C85.0496 68.1406 85.1164 67.8977 85.1164 67.6392V66.7955C85.0709 66.8409 84.9829 66.8835 84.8522 66.9233C84.7243 66.9602 84.578 66.9929 84.4133 67.0213C84.2485 67.0469 84.088 67.071 83.9317 67.0938C83.7755 67.1136 83.6448 67.1307 83.5397 67.1449C83.2925 67.1761 83.0667 67.2287 82.8621 67.3026C82.6604 67.3764 82.4985 67.483 82.3763 67.6222C82.257 67.7585 82.1974 67.9403 82.1974 68.1676C82.1974 68.483 82.3138 68.7216 82.5468 68.8835C82.7797 69.0426 83.0766 69.1222 83.4374 69.1222ZM89.6018 66.1136V70H88.3276V63.4545H89.5506V64.5199H89.6316C89.7822 64.1733 90.018 63.8949 90.339 63.6847C90.6629 63.4744 91.0705 63.3693 91.562 63.3693C92.008 63.3693 92.3986 63.4631 92.7339 63.6506C93.0691 63.8352 93.329 64.1108 93.5137 64.4773C93.6984 64.8437 93.7907 65.2969 93.7907 65.8366V70H92.5165V65.9901C92.5165 65.5156 92.393 65.1449 92.1458 64.8778C91.8986 64.608 91.5592 64.473 91.1273 64.473C90.8319 64.473 90.5691 64.5369 90.339 64.6648C90.1117 64.7926 89.9313 64.9801 89.7978 65.2273C89.6671 65.4716 89.6018 65.767 89.6018 66.1136ZM98.4966 70.1321C97.8631 70.1321 97.3176 69.9886 96.8602 69.7017C96.4057 69.4119 96.0563 69.0128 95.8119 68.5043C95.5676 67.9957 95.4455 67.4134 95.4455 66.7571C95.4455 66.0923 95.5705 65.5057 95.8205 64.9972C96.0705 64.4858 96.4227 64.0866 96.8773 63.7997C97.3318 63.5128 97.8673 63.3693 98.4838 63.3693C98.981 63.3693 99.4242 63.4616 99.8134 63.6463C100.203 63.8281 100.516 64.0838 100.755 64.4134C100.997 64.7429 101.14 65.1278 101.186 65.5682H99.9455C99.8773 65.2614 99.721 64.9972 99.4767 64.7756C99.2352 64.554 98.9114 64.4432 98.5051 64.4432C98.15 64.4432 97.8389 64.5369 97.5719 64.7244C97.3077 64.9091 97.1017 65.1733 96.954 65.517C96.8063 65.858 96.7324 66.2614 96.7324 66.7273C96.7324 67.2045 96.8048 67.6165 96.9497 67.9631C97.0946 68.3097 97.2992 68.5781 97.5634 68.7685C97.8304 68.9588 98.1443 69.054 98.5051 69.054C98.7466 69.054 98.9654 69.0099 99.1614 68.9219C99.3602 68.831 99.5264 68.7017 99.66 68.5341C99.7963 68.3665 99.8915 68.1648 99.9455 67.929H101.186C101.14 68.3523 101.002 68.7301 100.772 69.0625C100.542 69.3949 100.234 69.6562 99.8475 69.8466C99.4639 70.0369 99.0136 70.1321 98.4966 70.1321ZM102.788 70V63.4545H104.062V70H102.788ZM103.432 62.4446C103.21 62.4446 103.02 62.3707 102.861 62.223C102.704 62.0724 102.626 61.8935 102.626 61.6861C102.626 61.4759 102.704 61.2969 102.861 61.1491C103.02 60.9986 103.21 60.9233 103.432 60.9233C103.653 60.9233 103.842 60.9986 103.998 61.1491C104.157 61.2969 104.237 61.4759 104.237 61.6861C104.237 61.8935 104.157 62.0724 103.998 62.223C103.842 62.3707 103.653 62.4446 103.432 62.4446ZM107.921 70.1449C107.506 70.1449 107.131 70.0682 106.796 69.9148C106.461 69.7585 106.195 69.5327 105.999 69.2372C105.806 68.9418 105.71 68.5795 105.71 68.1506C105.71 67.7812 105.781 67.4773 105.923 67.2386C106.065 67 106.256 66.8111 106.498 66.6719C106.739 66.5327 107.009 66.4276 107.308 66.3565C107.606 66.2855 107.91 66.2315 108.22 66.1946C108.612 66.1491 108.93 66.1122 109.174 66.0838C109.418 66.0526 109.596 66.0028 109.707 65.9347C109.818 65.8665 109.873 65.7557 109.873 65.6023V65.5724C109.873 65.2003 109.768 64.9119 109.558 64.7074C109.35 64.5028 109.041 64.4006 108.629 64.4006C108.2 64.4006 107.862 64.4957 107.614 64.6861C107.37 64.8736 107.201 65.0824 107.107 65.3125L105.91 65.0398C106.052 64.642 106.259 64.321 106.532 64.0767C106.808 63.8295 107.124 63.6506 107.482 63.5398C107.84 63.4261 108.217 63.3693 108.612 63.3693C108.873 63.3693 109.15 63.4006 109.443 63.4631C109.738 63.5227 110.014 63.6335 110.269 63.7955C110.528 63.9574 110.739 64.1889 110.904 64.4901C111.069 64.7884 111.151 65.1761 111.151 65.6534V70H109.907V69.1051H109.856C109.773 69.2699 109.65 69.4318 109.485 69.5909C109.32 69.75 109.109 69.8821 108.85 69.9872C108.592 70.0923 108.282 70.1449 107.921 70.1449ZM108.198 69.1222C108.55 69.1222 108.852 69.0526 109.102 68.9134C109.354 68.7741 109.546 68.5923 109.677 68.3679C109.81 68.1406 109.877 67.8977 109.877 67.6392V66.7955C109.832 66.8409 109.744 66.8835 109.613 66.9233C109.485 66.9602 109.339 66.9929 109.174 67.0213C109.009 67.0469 108.849 67.071 108.693 67.0938C108.536 67.1136 108.406 67.1307 108.3 67.1449C108.053 67.1761 107.827 67.2287 107.623 67.3026C107.421 67.3764 107.259 67.483 107.137 67.6222C107.018 67.7585 106.958 67.9403 106.958 68.1676C106.958 68.483 107.075 68.7216 107.308 68.8835C107.541 69.0426 107.837 69.1222 108.198 69.1222ZM114.363 61.2727V70H113.088V61.2727H114.363ZM119.835 70V61.2727H122.946C123.622 61.2727 124.183 61.3892 124.629 61.6222C125.078 61.8551 125.413 62.1776 125.634 62.5895C125.856 62.9986 125.967 63.4716 125.967 64.0085C125.967 64.5426 125.855 65.0128 125.63 65.419C125.409 65.8224 125.073 66.1364 124.625 66.3608C124.178 66.5852 123.617 66.6974 122.941 66.6974H120.585V65.5639H122.822C123.248 65.5639 123.595 65.5028 123.862 65.3807C124.132 65.2585 124.329 65.081 124.454 64.848C124.579 64.6151 124.642 64.3352 124.642 64.0085C124.642 63.679 124.578 63.3935 124.45 63.152C124.325 62.9105 124.127 62.7259 123.857 62.598C123.59 62.4673 123.24 62.402 122.805 62.402H121.152V70H119.835ZM124.143 66.0625L126.299 70H124.799L122.686 66.0625H124.143ZM130.446 70.1321C129.801 70.1321 129.246 69.9943 128.78 69.7188C128.317 69.4403 127.959 69.0497 127.706 68.5469C127.456 68.0412 127.331 67.4489 127.331 66.7699C127.331 66.0994 127.456 65.5085 127.706 64.9972C127.959 64.4858 128.311 64.0866 128.763 63.7997C129.217 63.5128 129.748 63.3693 130.356 63.3693C130.726 63.3693 131.084 63.4304 131.43 63.5526C131.777 63.6747 132.088 63.8665 132.363 64.1278C132.639 64.3892 132.856 64.7287 133.015 65.1463C133.175 65.5611 133.254 66.0653 133.254 66.6591V67.1108H128.051V66.1562H132.005C132.005 65.821 131.937 65.5241 131.801 65.2656C131.665 65.0043 131.473 64.7983 131.226 64.6477C130.981 64.4972 130.694 64.4219 130.365 64.4219C130.007 64.4219 129.694 64.5099 129.427 64.6861C129.163 64.8594 128.959 65.0866 128.814 65.3679C128.672 65.6463 128.601 65.9489 128.601 66.2756V67.0213C128.601 67.4588 128.677 67.831 128.831 68.1378C128.987 68.4446 129.204 68.679 129.483 68.8409C129.761 69 130.086 69.0795 130.459 69.0795C130.7 69.0795 130.92 69.0455 131.119 68.9773C131.318 68.9062 131.49 68.8011 131.635 68.6619C131.78 68.5227 131.89 68.3509 131.967 68.1463L133.173 68.3636C133.077 68.7187 132.903 69.0298 132.653 69.2969C132.406 69.5611 132.095 69.767 131.72 69.9148C131.348 70.0597 130.923 70.1321 130.446 70.1321ZM134.908 72.4545V63.4545H136.152V64.5156H136.259C136.333 64.3793 136.439 64.2216 136.578 64.0426C136.717 63.8636 136.911 63.7074 137.158 63.5739C137.405 63.4375 137.732 63.3693 138.138 63.3693C138.666 63.3693 139.138 63.5028 139.553 63.7699C139.967 64.0369 140.293 64.4219 140.529 64.9247C140.767 65.4276 140.886 66.0327 140.886 66.7401C140.886 67.4474 140.769 68.054 140.533 68.5597C140.297 69.0625 139.973 69.4503 139.561 69.723C139.149 69.9929 138.679 70.1278 138.151 70.1278C137.753 70.1278 137.428 70.0611 137.175 69.9276C136.925 69.794 136.729 69.6378 136.587 69.4588C136.445 69.2798 136.335 69.1207 136.259 68.9815H136.182V72.4545H134.908ZM136.156 66.7273C136.156 67.1875 136.223 67.5909 136.357 67.9375C136.49 68.2841 136.683 68.5554 136.936 68.7514C137.189 68.9446 137.499 69.0412 137.865 69.0412C138.246 69.0412 138.564 68.9403 138.82 68.7386C139.075 68.5341 139.269 68.2571 139.399 67.9077C139.533 67.5582 139.6 67.1648 139.6 66.7273C139.6 66.2955 139.534 65.9077 139.404 65.5639C139.276 65.2202 139.083 64.9489 138.824 64.75C138.568 64.5511 138.249 64.4517 137.865 64.4517C137.496 64.4517 137.183 64.5469 136.928 64.7372C136.675 64.9276 136.483 65.1932 136.352 65.5341C136.222 65.875 136.156 66.2727 136.156 66.7273ZM145.311 70.1321C144.697 70.1321 144.162 69.9915 143.705 69.7102C143.247 69.429 142.892 69.0355 142.639 68.5298C142.386 68.0241 142.26 67.4332 142.26 66.7571C142.26 66.0781 142.386 65.4844 142.639 64.9759C142.892 64.4673 143.247 64.0724 143.705 63.7912C144.162 63.5099 144.697 63.3693 145.311 63.3693C145.925 63.3693 146.46 63.5099 146.918 63.7912C147.375 64.0724 147.73 64.4673 147.983 64.9759C148.236 65.4844 148.362 66.0781 148.362 66.7571C148.362 67.4332 148.236 68.0241 147.983 68.5298C147.73 69.0355 147.375 69.429 146.918 69.7102C146.46 69.9915 145.925 70.1321 145.311 70.1321ZM145.315 69.0625C145.713 69.0625 146.043 68.9574 146.304 68.7472C146.565 68.5369 146.759 68.2571 146.884 67.9077C147.011 67.5582 147.075 67.1733 147.075 66.7528C147.075 66.3352 147.011 65.9517 146.884 65.6023C146.759 65.25 146.565 64.9673 146.304 64.7543C146.043 64.5412 145.713 64.4347 145.315 64.4347C144.915 64.4347 144.582 64.5412 144.318 64.7543C144.057 64.9673 143.862 65.25 143.734 65.6023C143.609 65.9517 143.547 66.3352 143.547 66.7528C143.547 67.1733 143.609 67.5582 143.734 67.9077C143.862 68.2571 144.057 68.5369 144.318 68.7472C144.582 68.9574 144.915 69.0625 145.315 69.0625ZM150.025 70V63.4545H151.256V64.4943H151.324C151.444 64.142 151.654 63.8651 151.955 63.6634C152.259 63.4588 152.603 63.3565 152.986 63.3565C153.066 63.3565 153.159 63.3594 153.267 63.3651C153.378 63.3707 153.465 63.3778 153.527 63.3864V64.6051C153.476 64.5909 153.385 64.5753 153.255 64.5582C153.124 64.5384 152.993 64.5284 152.863 64.5284C152.561 64.5284 152.293 64.5923 152.057 64.7202C151.824 64.8452 151.64 65.0199 151.503 65.2443C151.367 65.4659 151.299 65.7187 151.299 66.0028V70H150.025ZM158.312 63.4545V64.4773H154.737V63.4545H158.312ZM155.696 61.8864H156.97V68.0781C156.97 68.3253 157.007 68.5114 157.081 68.6364C157.154 68.7585 157.25 68.8423 157.366 68.8878C157.485 68.9304 157.615 68.9517 157.754 68.9517C157.856 68.9517 157.946 68.9446 158.022 68.9304C158.099 68.9162 158.159 68.9048 158.201 68.8963L158.431 69.9489C158.358 69.9773 158.252 70.0057 158.116 70.0341C157.98 70.0653 157.809 70.0824 157.605 70.0852C157.269 70.0909 156.957 70.0312 156.667 69.9062C156.377 69.7812 156.143 69.5881 155.964 69.3267C155.785 69.0653 155.696 68.7372 155.696 68.3423V61.8864ZM159.962 70V63.4545H161.236V70H159.962ZM160.605 62.4446C160.383 62.4446 160.193 62.3707 160.034 62.223C159.878 62.0724 159.8 61.8935 159.8 61.6861C159.8 61.4759 159.878 61.2969 160.034 61.1491C160.193 60.9986 160.383 60.9233 160.605 60.9233C160.827 60.9233 161.016 60.9986 161.172 61.1491C161.331 61.2969 161.41 61.4759 161.41 61.6861C161.41 61.8935 161.331 62.0724 161.172 62.223C161.016 62.3707 160.827 62.4446 160.605 62.4446ZM164.464 66.1136V70H163.19V63.4545H164.413V64.5199H164.494C164.644 64.1733 164.88 63.8949 165.201 63.6847C165.525 63.4744 165.933 63.3693 166.424 63.3693C166.87 63.3693 167.261 63.4631 167.596 63.6506C167.931 63.8352 168.191 64.1108 168.376 64.4773C168.561 64.8437 168.653 65.2969 168.653 65.8366V70H167.379V65.9901C167.379 65.5156 167.255 65.1449 167.008 64.8778C166.761 64.608 166.421 64.473 165.99 64.473C165.694 64.473 165.431 64.5369 165.201 64.6648C164.974 64.7926 164.794 64.9801 164.66 65.2273C164.529 65.4716 164.464 65.767 164.464 66.1136ZM173.346 72.5909C172.826 72.5909 172.379 72.5227 172.004 72.3864C171.632 72.25 171.328 72.0696 171.092 71.8452C170.856 71.6207 170.68 71.375 170.563 71.108L171.659 70.6562C171.735 70.7812 171.837 70.9134 171.965 71.0526C172.096 71.1946 172.272 71.3153 172.494 71.4148C172.718 71.5142 173.007 71.5639 173.359 71.5639C173.842 71.5639 174.241 71.446 174.556 71.2102C174.872 70.9773 175.029 70.6051 175.029 70.0938V68.8068H174.948C174.872 68.946 174.761 69.1009 174.616 69.2713C174.474 69.4418 174.278 69.5895 174.028 69.7145C173.778 69.8395 173.453 69.902 173.052 69.902C172.535 69.902 172.069 69.7812 171.654 69.5398C171.242 69.2955 170.916 68.9361 170.674 68.4616C170.436 67.9844 170.316 67.3977 170.316 66.7017C170.316 66.0057 170.434 65.4091 170.67 64.9119C170.909 64.4148 171.235 64.0341 171.65 63.7699C172.065 63.5028 172.535 63.3693 173.061 63.3693C173.467 63.3693 173.795 63.4375 174.045 63.5739C174.295 63.7074 174.489 63.8636 174.629 64.0426C174.771 64.2216 174.88 64.3793 174.957 64.5156H175.051V63.4545H176.299V70.1449C176.299 70.7074 176.168 71.169 175.907 71.5298C175.646 71.8906 175.292 72.1577 174.846 72.331C174.403 72.5043 173.903 72.5909 173.346 72.5909ZM173.333 68.8452C173.7 68.8452 174.009 68.7599 174.262 68.5895C174.518 68.4162 174.711 68.169 174.842 67.848C174.975 67.5241 175.042 67.1364 175.042 66.6847C175.042 66.2443 174.977 65.8565 174.846 65.5213C174.715 65.1861 174.524 64.9247 174.271 64.7372C174.018 64.5469 173.705 64.4517 173.333 64.4517C172.95 64.4517 172.63 64.5511 172.374 64.75C172.119 64.946 171.926 65.2131 171.795 65.5511C171.667 65.8892 171.603 66.267 171.603 66.6847C171.603 67.1136 171.668 67.4901 171.799 67.8139C171.93 68.1378 172.123 68.3906 172.379 68.5724C172.637 68.7543 172.955 68.8452 173.333 68.8452Z" fill="black" fill-opacity="0.6"/>
</svg>
